<!--?xml version="1.0" encoding="utf-8"?-->
<!-- Generator: Adobe Illustrator 18.1.1, SVG Export Plug-In . SVG Version: 6.00 Build 0)  -->

<svg version="1.1" id="_x32_" xmlns="http://www.w3.org/2000/svg" xmlns:xlink="http://www.w3.org/1999/xlink" x="0px" y="0px" viewBox="0 0 512 512" style="width: 32px; height: 32px; opacity: 1;" xml:space="preserve">
<style type="text/css">
	.st0{fill:#4B4B4B;}
</style>
<g>
	<path class="st0" d="M441.833,281.668L304.074,419.43c-12.518,12.5-26.848,21.781-42.181,28.016
		c-22.995,9.328-48.264,11.664-72.393,6.992c-12.063-2.328-23.832-6.418-34.919-12.238c-11.088-5.832-21.495-13.39-30.874-22.77
		c-12.508-12.519-21.8-26.848-28.024-42.191c-9.327-22.992-11.672-48.254-7-72.382c2.345-12.063,6.424-23.832,12.248-34.938
		c5.831-11.07,13.398-21.476,22.776-30.863L285.298,77.454c7.478-7.461,15.987-12.969,25.112-16.684
		c13.66-5.543,28.731-6.957,43.096-4.148c7.182,1.375,14.182,3.816,20.763,7.278c6.599,3.461,12.788,7.957,18.393,13.554
		c7.461,7.469,12.97,15.988,16.674,25.106c5.544,13.668,6.948,28.73,4.166,43.094c-1.394,7.184-3.817,14.184-7.287,20.781
		c-3.469,6.59-7.959,12.762-13.554,18.367L237.73,339.723c-2.379,2.371-5.003,4.078-7.846,5.231c-4.244,1.718-8.996,2.18-13.51,1.3
		c-2.249-0.437-4.428-1.195-6.476-2.269c-2.049-1.09-3.975-2.484-5.753-4.262c-2.38-2.371-4.072-5.004-5.222-7.836
		c-1.726-4.246-2.178-9.004-1.299-13.52c0.427-2.25,1.194-4.43,2.266-6.469c1.081-2.058,2.476-3.984,4.254-5.762l131.082-131.074
		l-39.051-39.051L165.094,267.098c-7.654,7.652-13.486,16.613-17.338,26.129c-5.796,14.305-7.226,29.848-4.35,44.77
		c1.447,7.465,3.984,14.766,7.609,21.672c3.627,6.886,8.342,13.371,14.078,19.105c7.662,7.652,16.623,13.496,26.133,17.348
		c14.304,5.789,29.854,7.226,44.769,4.34c7.462-1.438,14.766-3.973,21.678-7.61c6.896-3.617,13.372-8.324,19.108-14.078
		l154.922-154.922c12.752-12.754,22.402-27.59,28.8-43.402c9.614-23.707,11.994-49.562,7.209-74.336
		c-2.398-12.394-6.608-24.527-12.622-35.964c-6.006-11.453-13.824-22.176-23.387-31.746c-12.744-12.742-27.588-22.383-43.401-28.801
		c-23.718-9.606-49.563-12.004-74.345-7.199c-12.387,2.387-24.52,6.598-35.957,12.613c-11.436,6.004-22.184,13.832-31.738,23.387
		L84.655,200.012c-17.79,17.781-31.223,38.457-40.149,60.468c-13.389,33.043-16.719,69.098-10.042,103.64
		c3.356,17.27,9.204,34.18,17.582,50.113c8.377,15.934,19.264,30.891,32.609,44.23c17.782,17.797,38.458,31.223,60.468,40.14
		c33.036,13.406,69.089,16.734,103.642,10.051c17.268-3.348,34.178-9.207,50.104-17.574c15.942-8.387,30.901-19.274,44.246-32.617
		l137.759-137.761L441.833,281.668z" style="fill: rgb(255, 255, 255);"></path>
</g>
</svg>
